<svg xmlns="http://www.w3.org/2000/svg" viewBox="0 0 128 128" role="img" aria-labelledby="title desc">
<title id="title">Radar Promo Brasil</title><desc id="desc">Radar azul com feixe e etiqueta de promoção</desc>
<defs><linearGradient id="ring" x1="16" y1="16" x2="112" y2="112" gradientUnits="userSpaceOnUse"><stop stop-color="#38bdf8"/><stop offset=".48" stop-color="#2563eb"/><stop offset="1" stop-color="#123b78"/></linearGradient><linearGradient id="beam" x1="64" y1="64" x2="108" y2="19" gradientUnits="userSpaceOnUse"><stop stop-color="#38bdf8"/><stop offset="1" stop-color="#67e8f9"/></linearGradient></defs>
<g fill="none" stroke="url(#ring)" stroke-linecap="round">
<path d="M29 101A51 51 0 1 1 106 83" stroke-width="9"/>
<path d="M42 88A33 33 0 1 1 94 77" stroke-width="8" opacity=".95"/>
<path d="M54 76A17 17 0 1 1 78 72" stroke-width="7" opacity=".9"/>
</g>
<path d="M65 62 102 21c3-3 8 0 7 4L76 71Z" fill="url(#beam)"/>
<circle cx="64" cy="64" r="9" fill="#10d98b" stroke="#082b59" stroke-width="5"/>
<path d="m70 77 18-5 28 28-19 19-28-28 1-14Z" fill="#0f3b7a"/>
<circle cx="84" cy="85" r="3.5" fill="#f3f7fc"/>
<path d="m91 103 13-13" stroke="#38bdf8" stroke-width="5" stroke-linecap="round"/>
</svg>